<svg width="38" height="46" viewBox="0 0 38 46" fill="none" xmlns="http://www.w3.org/2000/svg">
<path fill-rule="evenodd" clip-rule="evenodd" d="M33.083 46H4.91634C2.52326 46 0.583008 44.209 0.583008 42V4C0.583008 1.791 2.52326 0 4.91634 0H25.4704C25.4726 0 25.4758 0 25.478 0H25.4997C25.8463 0 26.1421 0.161 26.3403 0.395L36.9884 10.224C37.243 10.407 37.4163 10.68 37.4163 11V11.021C37.4163 11.023 37.4163 11.024 37.4163 11.026V42C37.4163 44.209 35.4761 46 33.083 46ZM26.583 3.381V10H33.7536L26.583 3.381ZM35.2497 12H25.4997C24.9006 12 24.4163 11.552 24.4163 11V2H4.91634C3.72034 2 2.74967 2.896 2.74967 4V42C2.74967 43.104 3.72034 44 4.91634 44H33.083C34.279 44 35.2497 43.104 35.2497 42V12ZM28.7497 38H9.24967C8.65059 38 8.16634 37.553 8.16634 37C8.16634 36.448 8.65059 36 9.24967 36H28.7497C29.3488 36 29.833 36.448 29.833 37C29.833 37.553 29.3488 38 28.7497 38ZM28.7497 30H9.24967C8.65059 30 8.16634 29.553 8.16634 29C8.16634 28.448 8.65059 28 9.24967 28H28.7497C29.3488 28 29.833 28.448 29.833 29C29.833 29.553 29.3488 30 28.7497 30ZM28.7497 22H9.24967C8.65059 22 8.16634 21.553 8.16634 21C8.16634 20.448 8.65059 20 9.24967 20H28.7497C29.3488 20 29.833 20.448 29.833 21C29.833 21.553 29.3488 22 28.7497 22Z" fill="black"/>
</svg>
